<?xml version="1.0" encoding="utf-8"?>
<!-- Generator: Adobe Illustrator 23.0.1, SVG Export Plug-In . SVG Version: 6.00 Build 0)  -->
<svg version="1.1" id="Layer_1" xmlns="http://www.w3.org/2000/svg" xmlns:xlink="http://www.w3.org/1999/xlink" x="0px" y="0px"
	 viewBox="0 0 1008 1008" style="enable-background:new 0 0 1008 1008;" xml:space="preserve">
<style type="text/css">
	.st0{fill:#FFFFFF;}
	.st1{fill:none;stroke:#1B1464;stroke-width:16.8881;stroke-miterlimit:10;}
	.st2{fill:none;stroke:#1B1464;stroke-width:7.8811;stroke-miterlimit:10;}
	.st3{fill:none;stroke:#1B1464;stroke-width:5.6294;stroke-miterlimit:10;}
	.st4{fill:none;stroke:#1B1464;stroke-width:4.5035;stroke-miterlimit:10;}
	.st5{fill:none;stroke:#1B1464;stroke-width:6.7553;stroke-miterlimit:10;}
	.st6{fill:#1B1464;stroke:#1B1464;stroke-width:6.7553;stroke-miterlimit:10;}
	.st7{fill:#1B1464;stroke:#1B1464;stroke-miterlimit:10;}
	.st8{fill:#FF0000;}
	.st9{font-family:'TimeBurner-Bold';}
	.st10{font-size:120px;}
</style>
<rect class="st0" width="1008" height="1008"/>
<path class="st1" d="M336.21,322c0,159.31,62.2,292.45,181.83,292.16"/>
<path class="st1" d="M618.8,300.04c114.28,162.13,28.71,320.87-100.77,314.12"/>
<path class="st1" d="M625.56,303.42c0,0-70.16,0-151.99,0"/>
<path class="st1" d="M470.19,301.73c0,31.98,0,58.55,0,56.86"/>
<path class="st1" d="M470.19,301.73c0-30.8,0-55.73,0-55.73"/>
<path class="st1" d="M461.74,246c0,0,76.45,0,166.07,0"/>
<path class="st2" d="M610.92,301.73c0,0,5.04,0,11.26,0"/>
<path class="st1" d="M336.21,322c0-11.2,4.28-20.27,9.57-20.27"/>
<path class="st1" d="M345.78,303.98c-3.34-13.33,70.61,35.1,124.41,54.61"/>
<path class="st2" d="M345.78,301.73c88.38,108.08,99.08,122.16,29.84,215.61"/>
<path class="st3" d="M415.58,399.68c58.55,11.82,128.35,30.96,216.73-69.8"/>
<path class="st2" d="M470.19,358.59c46.16,28.15,90.63,1.13,166.07-31.52"/>
<path class="st3" d="M398.69,484.12c0-3.73,124.97-72.06,272.46-6.76"/>
<path class="st2" d="M378.99,512.83c47.29,2.25,136.79,4.5,289.91-28.71"/>
<path class="st3" d="M524.23,425.01c27.02,4.5,66.99,2.81,142.99-12.95"/>
<path class="st2" d="M516.35,301.73c15.6,32.63,16.93,190.3,0.56,207.16"/>
<path class="st2" d="M543.37,300.04c12.38,31.52,23.08,149.74,1.13,206.04"/>
<path class="st2" d="M573.21,301.73c18.58,69.24,16.33,147.49,6.19,199.28"/>
<path class="st2" d="M603.04,301.73c29.27,101.89,23.64,139.05,7.88,193.65"/>
<path class="st4" d="M449.36,549.99c53.48,1.13,85.57,6.19,150.3-26.46"/>
<path class="st4" d="M503.4,551.68c-2.25,9.57-7.42,20.27-15.2,20.27"/>
<path class="st4" d="M503.4,549.42c-2.25-12.95-7.42-25.9-15.2-25.9"/>
<path class="st4" d="M509.03,575.32c6.19-10.7,6.41-25.9,12.95-25.9"/>
<path class="st4" d="M518.04,549.42c-2.81-12.38-2.47-25.9-9.01-25.9"/>
<path class="st4" d="M531.55,547.73c-2.81,14.64-3.1,29.27-9.01,29.27"/>
<path class="st4" d="M531.55,547.73c-2.81-11.26-1.13-24.21-6.19-25.9"/>
<path class="st4" d="M558.57,540.98c-7.88,17.45-4.61,36.03-12.38,36.03"/>
<path class="st4" d="M558.01,539.29c-3.94-10.7-3.84-21.95-7.88-21.95"/>
<path class="st4" d="M573.21,537.04c0,13.38,11.83,24.21,26.46,24.21"/>
<path class="st4" d="M573.21,537.04c0-12.76,5.79-23.08,12.95-23.08"/>
<path class="st5" d="M503.4,252.19v21.95V252.19z"/>
<path class="st6" d="M528.17,252.19v21.95V252.19z"/>
<path class="st6" d="M552.38,252.19v21.95V252.19z"/>
<path class="st6" d="M577.15,252.19v21.95V252.19z"/>
<path class="st6" d="M599.66,252.19v21.95V252.19z"/>
<circle class="st7" cx="503.68" cy="276.68" r="8.16"/>
<circle class="st7" cx="527.89" cy="276.68" r="8.16"/>
<circle class="st7" cx="552.1" cy="276.68" r="8.16"/>
<circle class="st7" cx="576.86" cy="276.68" r="8.16"/>
<circle class="st7" cx="599.38" cy="276.68" r="8.16"/>
<circle class="st7" cx="449.36" cy="549.42" r="10.13"/>
<circle class="st7" cx="599.66" cy="525.78" r="10.13"/>
<text transform="matrix(1 0 0 1 281.8799 723.04)" class="st8 st9 st10">Dragnet</text>
</svg>
